<?xml version="1.0" encoding="utf-8"?>
<!-- Generator: Adobe Illustrator 21.0.0, SVG Export Plug-In . SVG Version: 6.00 Build 0)  -->
<svg version="1.1" id="Слой_1" xmlns="http://www.w3.org/2000/svg" xmlns:xlink="http://www.w3.org/1999/xlink" x="0px" y="0px"
	 viewBox="0 0 200 200" style="enable-background:new 0 0 200 200;" xml:space="preserve">
<style type="text/css">
	.st0{fill:#3794D2;}
</style>
<path class="st0" d="M174.4,166.8c15.8-17.7,25.6-41,25.6-66.7C200,44.8,155.2,0,99.9,0C44.6,0-0.2,44.8-0.2,100.1
	c0,25,9.2,47.7,24.3,65.3v0c0,0,0,0,0,0c2.2,2.6,4.6,5,7,7.4c0.3,0.2,0.5,0.5,0.8,0.7c2.2,2.1,4.5,4,6.9,5.9c0.5,0.4,1,0.7,1.5,1.1
	c2.2,1.6,4.5,3.2,6.8,4.7c0.7,0.4,1.4,0.9,2.1,1.3c2.2,1.3,4.5,2.5,6.8,3.6c0.9,0.4,1.8,0.9,2.6,1.3c2.2,1,4.4,1.9,6.7,2.7
	c1,0.4,2,0.8,3.1,1.1c2.2,0.7,4.5,1.4,6.8,1.9c1.1,0.3,2.2,0.6,3.4,0.9c2.4,0.5,4.9,0.9,7.4,1.2c1.1,0.1,2.1,0.4,3.1,0.5
	c3.5,0.4,7.1,0.6,10.8,0.6c3.6,0,7.2-0.2,10.7-0.6c1-0.1,1.9-0.3,2.9-0.4c2.5-0.3,5.1-0.7,7.6-1.2c1-0.2,1.9-0.5,2.9-0.7
	c2.5-0.6,4.9-1.2,7.3-2c0.8-0.3,1.6-0.6,2.4-0.9c2.5-0.9,5-1.8,7.4-2.9c0.6-0.3,1.2-0.6,1.8-0.9c2.6-1.2,5.1-2.5,7.5-3.9
	c0.4-0.2,0.8-0.5,1.2-0.7c2.6-1.6,5.1-3.2,7.6-5c0.2-0.2,0.4-0.3,0.7-0.5c2.6-1.9,5.1-4,7.5-6.2c0.1-0.1,0.2-0.1,0.2-0.2
	C169.8,171.7,172.2,169.3,174.4,166.8C174.4,166.8,174.4,166.8,174.4,166.8L174.4,166.8z M7.7,100.1C7.7,49.2,49,7.9,99.9,7.9
	c50.9,0,92.2,41.3,92.2,92.2c0,22.8-8.4,43.7-22.1,59.8c-13.2-18.6-33.2-31.9-56.4-36v-11.3C125.1,105.6,133,90.5,133,73
	C133,48.7,117.7,29,98.8,29C79.9,29,64.6,48.7,64.6,73c0,17.5,7.9,32.6,19.4,39.7V124c-22.6,3.9-42.2,16.7-55.4,34.6
	C15.5,142.7,7.7,122.3,7.7,100.1z"/>
</svg>
